<?xml version="1.0" encoding="UTF-8" standalone="no"?>
<svg
   width="36"
   height="36"
   viewBox="0 0 24 24"
   fill="currentColor"
   stroke-width="2"
   class="ai ai-YoutubeFill"
   version="1.1"
   id="svg1"
   sodipodi:docname="yt.svg"
   inkscape:version="1.3 (0e150ed6c4, 2023-07-21)"
   xmlns:inkscape="http://www.inkscape.org/namespaces/inkscape"
   xmlns:sodipodi="http://sodipodi.sourceforge.net/DTD/sodipodi-0.dtd"
   xmlns="http://www.w3.org/2000/svg"
   xmlns:svg="http://www.w3.org/2000/svg">
  <sodipodi:namedview
     id="namedview1"
     pagecolor="#ffffff"
     bordercolor="#000000"
     borderopacity="0.25"
     inkscape:showpageshadow="2"
     inkscape:pageopacity="0.0"
     inkscape:pagecheckerboard="0"
     inkscape:deskcolor="#d1d1d1"
     inkscape:zoom="19.416667"
     inkscape:cx="18"
     inkscape:cy="18"
     inkscape:window-width="1920"
     inkscape:window-height="974"
     inkscape:window-x="-11"
     inkscape:window-y="-11"
     inkscape:window-maximized="1"
     inkscape:current-layer="svg1" />
  <g
     clip-path="url(#clip0_100_7)"
     id="g1"
     style="fill:#f2f2f8;fill-opacity:1">
    <path
       d="M23.5 6.507a2.786 2.786 0 0 0-.766-1.27 3.05 3.05 0 0 0-1.338-.742C19.518 4 11.994 4 11.994 4a76.624 76.624 0 0 0-9.39.47 3.16 3.16 0 0 0-1.338.76c-.37.356-.638.795-.778 1.276A29.09 29.09 0 0 0 0 12c-.012 1.841.151 3.68.488 5.494.137.479.404.916.775 1.269.371.353.833.608 1.341.743 1.903.494 9.39.494 9.39.494a76.8 76.8 0 0 0 9.402-.47 3.05 3.05 0 0 0 1.338-.742c.37-.353.633-.792.765-1.27A28.38 28.38 0 0 0 24 12.023a26.579 26.579 0 0 0-.5-5.517zM9.602 15.424V8.577l6.26 3.424-6.26 3.423z"
       id="path1"
       style="fill:#f2f2f8;fill-opacity:1" />
  </g>
  <defs
     id="defs1">
    <clipPath
       id="clip0_100_7">
      <rect
         width="24"
         height="24"
         id="rect1" />
    </clipPath>
  </defs>
</svg>
